<svg width="423" height="82" viewBox="0 0 423 82" fill="none" xmlns="http://www.w3.org/2000/svg">
<g filter="url(#filter0_d_103_5)">
<path d="M49.0781 53.9688C49.0781 58.0312 48.0938 61.5625 46.125 64.5625C44.1562 67.5625 41.2812 69.875 37.5 71.5C33.75 73.125 29.1875 73.9375 23.8125 73.9375C21.4375 73.9375 19.1094 73.7812 16.8281 73.4688C14.5781 73.1562 12.4062 72.7031 10.3125 72.1094C8.25 71.4844 6.28125 70.7188 4.40625 69.8125V56.3125C7.65625 57.75 11.0312 59.0469 14.5312 60.2031C18.0312 61.3594 21.5 61.9375 24.9375 61.9375C27.3125 61.9375 29.2188 61.625 30.6562 61C32.125 60.375 33.1875 59.5156 33.8438 58.4219C34.5 57.3281 34.8281 56.0781 34.8281 54.6719C34.8281 52.9531 34.25 51.4844 33.0938 50.2656C31.9375 49.0469 30.3438 47.9062 28.3125 46.8438C26.3125 45.7812 24.0469 44.6406 21.5156 43.4219C19.9219 42.6719 18.1875 41.7656 16.3125 40.7031C14.4375 39.6094 12.6562 38.2812 10.9688 36.7188C9.28125 35.1562 7.89062 33.2656 6.79688 31.0469C5.73438 28.7969 5.20312 26.1094 5.20312 22.9844C5.20312 18.8906 6.14062 15.3906 8.01562 12.4844C9.89062 9.57812 12.5625 7.35938 16.0312 5.82812C19.5312 4.26562 23.6562 3.48438 28.4062 3.48438C31.9688 3.48438 35.3594 3.90625 38.5781 4.75C41.8281 5.5625 45.2188 6.75 48.75 8.3125L44.0625 19.6094C40.9062 18.3281 38.0781 17.3438 35.5781 16.6562C33.0781 15.9375 30.5312 15.5781 27.9375 15.5781C26.125 15.5781 24.5781 15.875 23.2969 16.4688C22.0156 17.0312 21.0469 17.8438 20.3906 18.9062C19.7344 19.9375 19.4062 21.1406 19.4062 22.5156C19.4062 24.1406 19.875 25.5156 20.8125 26.6406C21.7812 27.7344 23.2188 28.7969 25.125 29.8281C27.0625 30.8594 29.4688 32.0625 32.3438 33.4375C35.8438 35.0938 38.8281 36.8281 41.2969 38.6406C43.7969 40.4219 45.7188 42.5312 47.0625 44.9688C48.4062 47.375 49.0781 50.375 49.0781 53.9688ZM74.6719 20.5938V73H60.375V20.5938H74.6719ZM67.5469 0.0625C69.6719 0.0625 71.5 0.5625 73.0312 1.5625C74.5625 2.53125 75.3281 4.35938 75.3281 7.04688C75.3281 9.70312 74.5625 11.5469 73.0312 12.5781C71.5 13.5781 69.6719 14.0781 67.5469 14.0781C65.3906 14.0781 63.5469 13.5781 62.0156 12.5781C60.5156 11.5469 59.7656 9.70312 59.7656 7.04688C59.7656 4.35938 60.5156 2.53125 62.0156 1.5625C63.5469 0.5625 65.3906 0.0625 67.5469 0.0625ZM106.312 73.9375C100.469 73.9375 95.7031 71.6562 92.0156 67.0938C88.3594 62.5 86.5312 55.7656 86.5312 46.8906C86.5312 37.9219 88.3906 31.1406 92.1094 26.5469C95.8281 21.9219 100.688 19.6094 106.688 19.6094C109.188 19.6094 111.391 19.9531 113.297 20.6406C115.203 21.3281 116.844 22.25 118.219 23.4062C119.625 24.5625 120.812 25.8594 121.781 27.2969H122.25C122.062 26.2969 121.828 24.8281 121.547 22.8906C121.297 20.9219 121.172 18.9062 121.172 16.8438V0.0625H135.516V73H124.547L121.781 66.2031H121.172C120.266 67.6406 119.125 68.9531 117.75 70.1406C116.406 71.2969 114.797 72.2188 112.922 72.9062C111.047 73.5938 108.844 73.9375 106.312 73.9375ZM111.328 62.5469C115.234 62.5469 117.984 61.3906 119.578 59.0781C121.203 56.7344 122.062 53.2188 122.156 48.5312V46.9844C122.156 41.8906 121.375 38 119.812 35.3125C118.25 32.5938 115.344 31.2344 111.094 31.2344C107.938 31.2344 105.469 32.5938 103.688 35.3125C101.906 38.0312 101.016 41.9531 101.016 47.0781C101.016 52.2031 101.906 56.0625 103.688 58.6562C105.5 61.25 108.047 62.5469 111.328 62.5469ZM172.078 19.6094C176.922 19.6094 181.094 20.5469 184.594 22.4219C188.094 24.2656 190.797 26.9531 192.703 30.4844C194.609 34.0156 195.562 38.3281 195.562 43.4219V50.3594H161.766C161.922 54.3906 163.125 57.5625 165.375 59.875C167.656 62.1562 170.812 63.2969 174.844 63.2969C178.188 63.2969 181.25 62.9531 184.031 62.2656C186.812 61.5781 189.672 60.5469 192.609 59.1719V70.2344C190.016 71.5156 187.297 72.4531 184.453 73.0469C181.641 73.6406 178.219 73.9375 174.188 73.9375C168.938 73.9375 164.281 72.9688 160.219 71.0312C156.188 69.0938 153.016 66.1406 150.703 62.1719C148.422 58.2031 147.281 53.2031 147.281 47.1719C147.281 41.0469 148.312 35.9531 150.375 31.8906C152.469 27.7969 155.375 24.7344 159.094 22.7031C162.812 20.6406 167.141 19.6094 172.078 19.6094ZM172.172 29.7812C169.391 29.7812 167.078 30.6719 165.234 32.4531C163.422 34.2344 162.375 37.0312 162.094 40.8438H182.156C182.125 38.7188 181.734 36.8281 180.984 35.1719C180.266 33.5156 179.172 32.2031 177.703 31.2344C176.266 30.2656 174.422 29.7812 172.172 29.7812ZM233.25 4.46875H254.578C263.703 4.46875 270.609 5.75 275.297 8.3125C279.984 10.875 282.328 15.375 282.328 21.8125C282.328 24.4062 281.906 26.75 281.062 28.8438C280.25 30.9375 279.062 32.6562 277.5 34C275.938 35.3438 274.031 36.2188 271.781 36.625V37.0938C274.062 37.5625 276.125 38.375 277.969 39.5312C279.812 40.6562 281.281 42.3125 282.375 44.5C283.5 46.6562 284.062 49.5312 284.062 53.125C284.062 57.2812 283.047 60.8438 281.016 63.8125C278.984 66.7812 276.078 69.0625 272.297 70.6562C268.547 72.2188 264.078 73 258.891 73H233.25V4.46875ZM247.781 31.6094H256.219C260.438 31.6094 263.359 30.9531 264.984 29.6406C266.609 28.2969 267.422 26.3281 267.422 23.7344C267.422 21.1094 266.453 19.2344 264.516 18.1094C262.609 16.9531 259.578 16.375 255.422 16.375H247.781V31.6094ZM247.781 43.1406V61H257.25C261.625 61 264.672 60.1562 266.391 58.4688C268.109 56.7812 268.969 54.5156 268.969 51.6719C268.969 49.9844 268.594 48.5 267.844 47.2188C267.094 45.9375 265.828 44.9375 264.047 44.2188C262.297 43.5 259.875 43.1406 256.781 43.1406H247.781ZM339.703 73L334.734 56.6875H309.75L304.781 73H289.125L313.312 4.1875H331.078L355.359 73H339.703ZM331.266 44.5L326.297 28.5625C325.984 27.5 325.562 26.1406 325.031 24.4844C324.531 22.7969 324.016 21.0938 323.484 19.375C322.984 17.625 322.578 16.1094 322.266 14.8281C321.953 16.1094 321.516 17.7031 320.953 19.6094C320.422 21.4844 319.906 23.2656 319.406 24.9531C318.906 26.6406 318.547 27.8438 318.328 28.5625L313.406 44.5H331.266ZM384 4.46875C390.219 4.46875 395.344 5.21875 399.375 6.71875C403.438 8.21875 406.453 10.4844 408.422 13.5156C410.391 16.5469 411.375 20.375 411.375 25C411.375 28.125 410.781 30.8594 409.594 33.2031C408.406 35.5469 406.844 37.5312 404.906 39.1562C402.969 40.7812 400.875 42.1094 398.625 43.1406L418.781 73H402.656L386.297 46.7031H378.562V73H364.031V4.46875H384ZM382.969 16.375H378.562V34.8906H383.25C388.062 34.8906 391.5 34.0938 393.562 32.5C395.656 30.875 396.703 28.5 396.703 25.375C396.703 22.125 395.578 19.8125 393.328 18.4375C391.109 17.0625 387.656 16.375 382.969 16.375Z" fill="#7AB398"/>
</g>
<defs>
<filter id="filter0_d_103_5" x="0.40625" y="0.0625" width="422.375" height="81.875" filterUnits="userSpaceOnUse" color-interpolation-filters="sRGB">
<feFlood flood-opacity="0" result="BackgroundImageFix"/>
<feColorMatrix in="SourceAlpha" type="matrix" values="0 0 0 0 0 0 0 0 0 0 0 0 0 0 0 0 0 0 127 0" result="hardAlpha"/>
<feOffset dy="4"/>
<feGaussianBlur stdDeviation="2"/>
<feComposite in2="hardAlpha" operator="out"/>
<feColorMatrix type="matrix" values="0 0 0 0 0 0 0 0 0 0 0 0 0 0 0 0 0 0 0.25 0"/>
<feBlend mode="normal" in2="BackgroundImageFix" result="effect1_dropShadow_103_5"/>
<feBlend mode="normal" in="SourceGraphic" in2="effect1_dropShadow_103_5" result="shape"/>
</filter>
</defs>
</svg>
